<svg width="800" height="600" viewBox="0 0 800 600" fill="none" xmlns="http://www.w3.org/2000/svg">
  <rect width="800" height="600" rx="32" fill="#EAF7FF"/>
  <rect x="80" y="420" width="640" height="110" rx="24" fill="#8BD1CB"/>
  <rect x="120" y="220" width="220" height="200" rx="24" fill="#2E9DF7"/>
  <rect x="360" y="180" width="220" height="240" rx="24" fill="#FFC907"/>
  <rect x="600" y="240" width="110" height="180" rx="24" fill="#4FCB53"/>
  <rect x="150" y="170" width="160" height="50" rx="18" fill="#159A48"/>
  <rect x="390" y="130" width="160" height="50" rx="18" fill="#F16061"/>
  <path d="M220 300C220 260 250 230 290 230H310C350 230 380 260 380 300V340H220V300Z" fill="#F4F8FB"/>
  <path d="M250 270H340" stroke="#2E9DF7" stroke-width="10" stroke-linecap="round"/>
  <circle cx="240" cy="180" r="28" fill="#F16061"/>
  <circle cx="420" cy="150" r="24" fill="#F5402C"/>
  <path d="M190 378C190 345 216 318 248 318H290C322 318 348 345 348 378V408H190V378Z" fill="#F4F8FB"/>
  <rect x="210" y="330" width="120" height="90" rx="12" fill="#FF902A"/>
  <path d="M430 350C430 310 460 280 500 280H520C560 280 590 310 590 350V390H430V350Z" fill="#F4F8FB"/>
  <rect x="450" y="300" width="120" height="90" rx="12" fill="#159A48"/>
  <path d="M628 312C628 285 650 264 676 264H694C720 264 742 285 742 312V342H628V312Z" fill="#F4F8FB"/>
  <rect x="640" y="270" width="90" height="100" rx="12" fill="#2E9DF7"/>
  <path d="M100 430H700" stroke="#159A48" stroke-width="12" stroke-linecap="round"/>
  <path d="M120 470H680" stroke="#4FCB53" stroke-width="10" stroke-linecap="round"/>
</svg>
